{"accessors":[{"name":"Base_02-Mesh_positions","componentType":5126,"count":139,"min":[19.82241439819336,-1.0101549625396729,-0.8955309987068176],"max":[22.142545700073242,-0.36781299114227295,0.9830960035324097],"type":"VEC3","bufferView":0,"byteOffset":0},{"name":"Base_02-Mesh_normals","componentType":5126,"count":139,"min":[-1,-1,-1],"max":[1,1,1],"type":"VEC3","bufferView":0,"byteOffset":1668},{"name":"Base_02-Mesh_0_indices","componentType":5123,"count":300,"min":[0],"max":[138],"type":"SCALAR","bufferView":1,"byteOffset":0}],"asset":{"generator":"obj2gltf","version":"2.0"},"buffers":[{"name":"input","byteLength":3936,"uri":"data:application/octet-stream;base64,"}],"bufferViews":[{"name":"bufferView_0","buffer":0,"byteLength":3336,"byteOffset":0,"byteStride":12,"target":34962},{"name":"bufferView_1","buffer":0,"byteLength":600,"byteOffset":3336,"target":34963}],"materials":[{"name":"HiEnd_unit","pbrMetallicRoughness":{"baseColorFactor":[0.5,0.5,0.5,1],"metallicFactor":0,"roughnessFactor":1},"emissiveFactor":[0,0,0],"alphaMode":"OPAQUE","doubleSided":false}],"meshes":[{"name":"Base_02-Mesh","primitives":[{"attributes":{"POSITION":0,"NORMAL":1},"indices":2,"material":0,"mode":4}]}],"nodes":[{"name":"Base_02","mesh":0}],"scene":0,"scenes":[{"nodes":[0]}]}
