{"accessors":[{"name":"yoke_02-Mesh_positions","componentType":5126,"count":144,"min":[-1.2470669746398926,-0.28123098611831665,-0.9271379709243774],"max":[1.072227954864502,0.20785899460315704,0.8781610131263733],"type":"VEC3","bufferView":0,"byteOffset":0},{"name":"yoke_02-Mesh_normals","componentType":5126,"count":144,"min":[-1,-1,-1],"max":[1,1,1],"type":"VEC3","bufferView":0,"byteOffset":1728},{"name":"yoke_02-Mesh_0_indices","componentType":5123,"count":276,"min":[0],"max":[143],"type":"SCALAR","bufferView":1,"byteOffset":0}],"asset":{"generator":"obj2gltf","version":"2.0"},"buffers":[{"name":"input","byteLength":4008,"uri":"data:application/octet-stream;base64,"}],"bufferViews":[{"name":"bufferView_0","buffer":0,"byteLength":3456,"byteOffset":0,"byteStride":12,"target":34962},{"name":"bufferView_1","buffer":0,"byteLength":552,"byteOffset":3456,"target":34963}],"materials":[{"name":"HiEnd_unit","pbrMetallicRoughness":{"baseColorFactor":[0.5,0.5,0.5,1],"metallicFactor":0,"roughnessFactor":1},"emissiveFactor":[0,0,0],"alphaMode":"OPAQUE","doubleSided":false}],"meshes":[{"name":"yoke_02-Mesh","primitives":[{"attributes":{"POSITION":0,"NORMAL":1},"indices":2,"material":0,"mode":4}]}],"nodes":[{"name":"yoke_02","mesh":0}],"scene":0,"scenes":[{"nodes":[0]}]}
