{"accessors":[{"name":"VL2k_02-Mesh_positions","componentType":5126,"count":812,"min":[-4.438669204711914,-3.483712911605835,-2.1753900051116943],"max":[-2.8327760696411133,-0.6309340000152588,-1.100316047668457],"type":"VEC3","bufferView":0,"byteOffset":0},{"name":"VL2k_02-Mesh_normals","componentType":5126,"count":812,"min":[-0.9998999834060669,-1,-0.9998999834060669],"max":[0.9998999834060669,1,0.9998999834060669],"type":"VEC3","bufferView":0,"byteOffset":9744},{"name":"VL2k_02-Mesh_0_indices","componentType":5123,"count":1257,"min":[0],"max":[793],"type":"SCALAR","bufferView":1,"byteOffset":0},{"name":"VL2k_02-Mesh_1_indices","componentType":5123,"count":48,"min":[794],"max":[811],"type":"SCALAR","bufferView":1,"byteOffset":2516}],"asset":{"generator":"obj2gltf","version":"2.0"},"buffers":[{"name":"input","byteLength":22100,"uri":"data:application/octet-stream;base64,"}],"bufferViews":[{"name":"bufferView_0","buffer":0,"byteLength":19488,"byteOffset":0,"byteStride":12,"target":34962},{"name":"bufferView_1","buffer":0,"byteLength":2612,"byteOffset":19488,"target":34963}],"materials":[{"name":"body","pbrMetallicRoughness":{"baseColorFactor":[0.5,0.5,0.5,1],"metallicFactor":0,"roughnessFactor":1},"emissiveFactor":[0,0,0],"alphaMode":"OPAQUE","doubleSided":false},{"name":"lens1","pbrMetallicRoughness":{"baseColorFactor":[0.5,0.5,0.5,1],"metallicFactor":0,"roughnessFactor":1},"emissiveFactor":[0,0,0],"alphaMode":"OPAQUE","doubleSided":false}],"meshes":[{"name":"VL2k_02-Mesh","primitives":[{"attributes":{"POSITION":0,"NORMAL":1},"indices":2,"material":0,"mode":4},{"attributes":{"POSITION":0,"NORMAL":1},"indices":3,"material":1,"mode":4}]}],"nodes":[{"name":"VL2k_02","mesh":0}],"scene":0,"scenes":[{"nodes":[0]}]}
